<?xml version="1.0" encoding="UTF-8"?>
<svg width="251.99999999999997" height="102.1611202743918" viewBox="0 0 370 149.99847024414672" xmlns="http://www.w3.org/2000/svg">
  <g transform="matrix(1.5305966351443543,0,0,1.5305966351443543,-26.529831757217707,-1.5305966351443543)" fill="#112d4e">
    <path d="M50,1c0,20.219-32.667,42.937-32.667,65.333c0,11.038,5.474,20.797,13.855,26.711c0-20.22,32.667-42.937,32.667-65.333 C63.855,16.672,58.381,6.914,50,1z"></path>
    <path d="M74.927,38.552c-4.613,20.542-32.005,41.154-32.005,59.669C45.201,98.727,47.568,99,50,99 c18.041,0,32.667-14.625,32.667-32.667C82.667,58.777,79.602,48.761,74.927,38.552z"></path>
  </g>
  <g transform="matrix(5.3101106740306205,0,0,5.3101106740306205,112.03483398895406,-2.6389128185258173)" fill="#f9f7f7">
    <path d="M1.8 10.76 l1.2 0 l0 9.24 l-1.2 0 l0 -9.24 z M2.4 6.199999999999999 q0.4 0 0.65 0.26 t0.25 0.64 t-0.25 0.64 t-0.65 0.26 q-0.38 0 -0.64 -0.26 t-0.26 -0.64 t0.26 -0.64 t0.64 -0.26 z M7.08 15.379999999999999 q0 1.66 1.04 2.72 t2.62 1.06 q1.64 0 2.65 -1.08 t1.01 -2.7 q0 -1.6 -1 -2.68 t-2.68 -1.1 q-1.62 0 -2.62 1.08 t-1.02 2.7 z M10.74 10.52 q2.12 0 3.48 1.38 t1.38 3.48 q0 2.14 -1.39 3.49 t-3.47 1.37 q-2.18 -0.02 -3.51 -1.4 t-1.35 -3.46 q0 -2.14 1.37 -3.49 t3.49 -1.37 z M18.96 15.379999999999999 q0 1.66 1.04 2.72 t2.62 1.06 q1.56 0 2.69 -1.07 t1.17 -2.71 q0 -1.56 -1.11 -2.66 t-2.77 -1.12 q-1.56 0 -2.59 1.06 t-1.05 2.72 z M26.36 4.880000000000001 l1.2 0 l0 15.12 l-1.2 0 l0 -1.62 l-0.04 0 q-0.5 0.88 -1.53 1.37 t-2.17 0.49 q-2.06 0 -3.44 -1.35 t-1.42 -3.51 q0 -2.06 1.35 -3.44 t3.51 -1.42 q1.18 0 2.18 0.49 t1.52 1.37 l0.04 0 l0 -7.5 z M30.7 10.76 l1.2 0 l0 9.24 l-1.2 0 l0 -9.24 z M31.299999999999997 6.199999999999999 q0.4 0 0.65 0.26 t0.25 0.64 t-0.25 0.64 t-0.65 0.26 q-0.38 0 -0.64 -0.26 t-0.26 -0.64 t0.26 -0.64 t0.64 -0.26 z M38.739999999999995 4.640000000000001 q0.84 0 1.38 0.24 l-0.24 1.04 q-0.4 -0.2 -1.08 -0.2 q-1.62 0 -1.62 2.38 l0 2.66 l2.16 0 l0 1.08 l-2.16 0 l0 8.16 l-1.2 0 l0 -8.16 l-1.92 0 l0 -1.08 l1.92 0 l0 -3.1 q0 -1.36 0.76 -2.18 t2 -0.84 z M41.26 10.76 l3.06 7.78 l2.98 -7.78 l1.28 0 l-4.74 12.06 q-0.78 1.98 -2.56 1.98 q-0.56 0 -1.18 -0.18 l0.12 -1.12 q0.66 0.22 1.08 0.22 q0.46 0 0.82 -0.32 t0.7 -1.16 l0.86 -2.2 l-3.76 -9.28 l1.34 0 z"></path>
  </g>
</svg>
